<svg id="Layer_1" data-name="Layer 1" xmlns="http://www.w3.org/2000/svg" viewBox="0 0 167 38"><defs><style>.cls-1{fill:#12b664;}.cls-2{fill:#fff;}</style></defs><title>logo</title><ellipse class="cls-1" cx="19.055" cy="19" rx="19.055" ry="19"/><path class="cls-2" d="M40.452,24.829a1.434,1.434,0,0,0-.818-1.287V14.665a0.273,0.273,0,0,0,0-.512L21.26,7.694a1.09,1.09,0,0,0-.728,0L2.167,14.155a0.273,0.273,0,0,0-.007.512L20.5,21.785a1.105,1.105,0,0,0,.793,0l17.074-6.63v8.386a1.433,1.433,0,0,0,.065,2.616,11.9,11.9,0,0,0-.882,3.719,1.451,1.451,0,0,0,2.9.076V29.876a11.934,11.934,0,0,0-.882-3.719A1.444,1.444,0,0,0,40.452,24.829Z"/><path class="cls-2" d="M7.9,18.251v4.84c0,3.812,5.755,6.916,12.991,7.11,7.236-.194,12.99-3.294,12.99-7.11v-4.84l-12.6,4.89a1.1,1.1,0,0,1-.793,0Z"/><path class="cls-2" d="M79.984,7.3V33.11H75.068l-12.9-15.672V33.11H56.253V7.3h4.953L74.071,22.97V7.3h5.914Z"/><path class="cls-2" d="M100.833,15.17q2.476,2.194,2.477,6.62V33.11h-5.4V30.64q-1.627,2.766-6.063,2.766a9.42,9.42,0,0,1-3.974-.774,5.923,5.923,0,0,1-2.57-2.139,5.555,5.555,0,0,1-.887-3.1,5.164,5.164,0,0,1,2.089-4.352q2.087-1.585,6.45-1.585h4.583a3.664,3.664,0,0,0-1.146-2.9,5.056,5.056,0,0,0-3.437-1.014,10.052,10.052,0,0,0-3.124.5,8.28,8.28,0,0,0-2.606,1.346l-2.07-4.019a12.521,12.521,0,0,1,3.9-1.77,17.505,17.505,0,0,1,4.676-.627Q98.355,12.976,100.833,15.17ZM95.917,28.852a3.737,3.737,0,0,0,1.626-2.01V24.813H93.588q-3.549,0-3.549,2.323a2.064,2.064,0,0,0,.868,1.751,3.916,3.916,0,0,0,2.385.646A5.033,5.033,0,0,0,95.917,28.852Z"/><path class="cls-2" d="M139.923,15.17q2.2,2.194,2.2,6.583V33.11h-5.767V22.638a5.373,5.373,0,0,0-.979-3.522,3.45,3.45,0,0,0-2.791-1.162,4.118,4.118,0,0,0-3.216,1.309,5.634,5.634,0,0,0-1.184,3.891V33.11h-5.766V22.638q0-4.682-3.771-4.684a4.074,4.074,0,0,0-3.179,1.309,5.634,5.634,0,0,0-1.184,3.891V33.11h-5.766V13.271h5.508v2.286a7.279,7.279,0,0,1,2.717-1.917,9.167,9.167,0,0,1,3.531-.664,8.568,8.568,0,0,1,3.807.83,6.745,6.745,0,0,1,2.735,2.416,8.162,8.162,0,0,1,3.087-2.4,9.757,9.757,0,0,1,4.085-.848A8.029,8.029,0,0,1,139.923,15.17Z"/><path class="cls-2" d="M166.889,24.813H151.845a4.669,4.669,0,0,0,1.922,2.913,6.379,6.379,0,0,0,3.771,1.069,7.644,7.644,0,0,0,2.754-.461,6.671,6.671,0,0,0,2.236-1.456L165.6,30.2q-2.811,3.208-8.207,3.208a13.017,13.017,0,0,1-5.952-1.309,9.617,9.617,0,0,1-3.992-3.633,9.984,9.984,0,0,1-1.4-5.273,10.121,10.121,0,0,1,1.386-5.255,9.7,9.7,0,0,1,3.808-3.65,11.814,11.814,0,0,1,10.7-.056,9.17,9.17,0,0,1,3.715,3.6A10.7,10.7,0,0,1,167,23.265Q167,23.376,166.889,24.813ZM153.4,18.434a4.7,4.7,0,0,0-1.627,3.024h9.8a4.758,4.758,0,0,0-1.627-3.006,4.868,4.868,0,0,0-3.253-1.125A4.971,4.971,0,0,0,153.4,18.434Z"/></svg>